P3
4 4
255
150 100 124   0 0 2  0 0 3  0 0 4 
0 1 0  0 2 0  0 3 0  0 4 0 
1 0 0  2 0 0  3 0 0  4 0 0 
0 1 2  1 2 3  2 3 4  4 4 4 